# Blender v2.76 (sub 0) OBJ File: ''
# www.blender.org
mtllib track_straight_diag.mtl
o track_straight_axis.003
v 0.485719 0.063816 0.396732
v 0.574113 0.063816 0.308338
v 0.574113 0.001312 0.308338
v 0.485720 0.001312 0.396731
v 1.000777 0.063816 1.000000
v 0.735414 0.063816 1.000000
v 0.912201 0.063816 1.000000
v 0.397326 0.063816 0.485124
v 0.308932 0.063816 0.573519
v 0.735414 0.001312 1.000000
v 0.308933 0.001312 0.573518
v 0.397326 0.001312 0.485124
v 0.912202 0.001312 1.000000
v 1.000777 0.063816 0.911790
v 1.000777 0.063816 0.735003
v 1.000777 0.001312 0.911789
v 1.000777 0.001312 0.735002
v 0.411841 0.063816 1.000000
v 0.588627 0.063816 1.000000
v 0.235540 0.063816 0.646911
v 0.147146 0.063816 0.735305
v 0.411842 0.001312 1.000000
v 0.147146 0.001312 0.735304
v 0.235540 0.001312 0.646911
v 0.588629 0.001312 1.000000
v 1.000777 0.063816 0.411429
v 0.735900 0.063816 0.146551
v 0.647506 0.063816 0.234945
v 1.000777 0.063816 0.588217
v 0.735900 0.001312 0.146551
v 0.647506 0.001312 0.234945
v 1.000777 0.126319 1.000000
v 1.000777 0.063816 0.853752
v 0.854529 0.063816 1.000000
v 0.854262 0.126319 1.000000
v 1.000777 0.126319 0.853577
v 1.000777 0.001312 0.411429
v 1.000777 0.001312 0.588217
v 1.000777 0.126319 0.146605
v 1.000777 0.063816 0.146605
v 1.000777 0.063816 -0.030181
v 1.000777 0.126319 -0.030181
v 0.147382 0.126319 1.000000
v 0.147383 0.063816 1.000000
v -0.029405 0.063816 1.000000
v -0.029405 0.126319 1.000000
v 0.896900 0.063816 -0.014449
v 0.808506 0.063816 0.073945
v 0.896900 0.001312 -0.014449
v 0.808506 0.001312 0.073945
v 1.000000 0.001312 0.265439
v 1.000000 0.001312 0.088651
v 1.000000 0.063816 0.265439
v 1.000000 0.063816 0.088651
v 0.073540 0.063816 0.808911
v -0.014854 0.063816 0.897305
v -0.014854 0.001312 0.897304
v 0.073540 0.001312 0.808911
v 0.264629 0.001312 1.000000
v 0.087841 0.063816 1.000000
v 0.264628 0.063816 1.000000
v 0.087842 0.001312 1.000000
vt 0.375000 0.062500
vt 0.500000 0.062500
vt 0.500000 0.125000
vt 0.375000 0.125000
vt 0.500000 0.312500
vt 0.625000 0.187500
vt 0.625000 0.937500
vt 0.500000 0.937500
vt 0.500000 0.687500
vt 0.625000 0.062500
vt 0.625000 0.812500
vt 0.375000 0.812500
vt 0.625000 0.437500
vt 0.750000 0.562500
vt 0.750000 0.062500
vt 0.625000 0.125000
vt 0.375000 0.437500
vt 0.250000 0.062500
vt 0.250000 0.562500
vt 0.750000 0.125000
vt 0.250000 0.125000
vt 0.625000 0.562500
vt 0.687500 0.562500
vt 0.687500 0.937500
vt 0.562500 0.062500
vt 0.562500 0.790894
vt 0.625000 0.790895
vt 0.219273 0.544454
vt 0.181865 0.470904
vt 0.144456 0.544454
vt 0.250000 0.603572
vt 0.250000 0.396685
vt 0.187500 0.396497
vt 0.187500 0.603697
vt 0.562500 0.312500
vt 0.562500 0.937500
vt 0.687500 0.062500
vt 0.687500 0.540794
vt 0.750000 0.540794
vt 0.312500 0.062500
vt 0.312500 0.437500
vt 0.187500 0.603503
vt 0.084061 0.499870
vt 0.187500 0.396303
vt 0.312500 0.562500
vt 0.437500 0.062500
vt 0.437500 0.687500
vt 0.187500 0.853473
vt 0.187500 0.146375
vt 0.062500 0.073135
vt 0.062500 0.926714
vt 0.062500 0.926864
vt 0.062500 0.073286
vt 0.000000 0.073286
vt 0.000000 0.926865
vt 0.089908 0.027450
vt 0.001001 0.053935
vt 0.001001 0.309646
vt 0.089908 0.336132
vt 0.250000 0.146375
vt 0.250000 0.853473
vt 0.437500 0.812500
vt 0.750000 0.187500
vt 0.625000 0.312500
vt 0.375000 0.187500
vt 0.312500 0.187500
vt 0.375000 0.200096
vt 0.250000 0.321904
vt 0.250000 0.312500
vt 0.312500 0.312500
vt 0.250000 0.187500
vt 0.375000 0.312500
vt 0.687500 0.812500
vt 0.687500 0.321349
vt 0.750000 0.321349
vn -0.707100 0.000000 -0.707100
vn 0.000000 1.000000 0.000000
vn -0.000000 -1.000000 -0.000000
vn -0.707100 -0.000000 0.707100
vn 0.707100 0.000000 -0.707100
vn -0.707000 -0.002500 -0.707200
vn 0.707100 0.000000 0.707100
usemtl Material.004
s off
f 1/1/1 2/2/1 3/3/1 4/4/1
f 6/5/2 7/6/2 8/7/2 9/8/2
f 10/9/3 11/2/3 12/10/3 13/11/3
f 14/12/2 15/9/2 2/2/2 1/1/2
f 16/12/3 4/1/3 3/2/3 17/9/3
f 18/13/2 19/14/2 20/15/2 21/10/2
f 9/3/1 8/16/1 12/10/1 11/2/1
f 22/13/3 23/10/3 24/15/3 25/14/3
f 26/17/2 27/1/2 28/18/2 29/19/2
f 21/16/1 20/20/1 24/15/1 23/10/1
f 27/4/1 30/1/1 31/18/1 28/21/1
f 23/7/4 22/22/4 18/23/4 21/24/4
f 12/10/5 8/25/5 7/26/5 13/27/5
f 33/28/3 5/29/3 34/30/3
f 33/31/6 34/32/6 35/33/6 36/34/6
f 11/8/4 10/5/4 6/35/4 9/36/4
f 24/15/5 20/37/5 19/38/5 25/39/5
f 31/18/3 30/1/3 37/17/3 38/19/3
f 30/40/5 27/1/5 26/17/5 37/41/5
f 35/42/2 32/43/2 36/44/2
f 31/18/4 38/19/4 29/45/4 28/40/4
f 3/2/5 2/46/5 15/47/5 17/9/5
f 43/48/2 39/49/2 42/50/2 46/51/2
f 41/52/1 45/53/1 46/54/1 42/55/1
f 41/56/3 40/57/3 44/58/3 45/59/3
f 40/60/7 39/49/7 43/48/7 44/61/7
f 14/62/4 1/46/4 4/1/4 16/12/4
f 54/63/2 47/15/2 48/10/2 53/64/2
f 47/4/1 49/1/1 50/18/1 48/21/1
f 49/40/5 47/1/5 54/65/5 52/66/5
f 50/18/3 49/1/3 52/67/3 51/68/3
f 50/18/4 51/69/4 53/70/4 48/40/4
f 60/71/2 61/72/2 55/1/2 56/18/2
f 62/71/3 57/18/3 58/1/3 59/72/3
f 56/16/1 55/20/1 58/15/1 57/10/1
f 57/7/4 62/11/4 60/73/4 56/24/4
f 58/15/5 55/37/5 61/74/5 59/75/5
