# Blender v2.76 (sub 0) OBJ File: ''
# www.blender.org
mtllib track_straight_axis.mtl
o track_straight_axis
v 0.937349 0.062501 0.062652
v 0.937349 0.062501 0.187659
v 0.937349 -0.000003 0.187659
v 0.249986 0.062501 0.000324
v 0.249986 0.062501 1.000028
v 0.124978 0.062501 1.000028
v 0.875021 0.062501 0.000324
v 0.750014 0.062501 0.000323
v 0.750014 0.125004 0.000324
v 0.875022 0.125004 0.000324
v 0.875021 0.125004 1.000029
v 0.875021 0.062501 1.000028
v 0.062651 0.062501 0.312665
v 0.062651 -0.000003 0.312665
v 0.062651 -0.000003 0.437671
v 0.249986 0.125004 0.000324
v 0.124979 0.125004 0.000324
v 0.124978 0.125004 1.000028
v 0.750014 0.062501 1.000028
v 0.937349 0.062501 0.812695
v 0.937349 0.062501 0.937701
v 0.937349 -0.000003 0.937701
v 0.124979 0.062501 0.000323
v 0.937349 -0.000003 0.437673
v 0.937349 0.062501 0.437673
v 0.062651 0.062501 0.437673
v 0.749701 0.125004 1.000028
v 0.062651 -0.000003 0.937700
v 0.062651 -0.000003 0.812693
v 0.937349 -0.000003 0.812693
v 0.062651 0.062501 0.812693
v 0.062651 0.062501 0.937701
v 0.937349 0.062501 0.312666
v 0.062651 0.062501 0.062651
v 0.937349 -0.000003 0.062651
v 0.062651 -0.000003 0.062651
v 0.062651 -0.000003 0.187659
v 0.062651 0.062501 0.187659
v 0.937349 0.062501 0.562680
v 0.062651 0.062501 0.562679
v 0.062651 0.062501 0.687687
v 0.937349 -0.000003 0.687687
v 0.937349 0.062501 0.687687
v 0.249986 0.125004 1.000029
v 0.937349 -0.000003 0.312665
v 0.062651 -0.000003 0.562679
v 0.062651 -0.000003 0.687686
v 0.937349 -0.000003 0.562679
vt 0.312500 0.062500
vt 0.375000 0.062500
vt 0.375000 0.937500
vt 0.312500 0.937500
vt 0.250000 0.000000
vt 0.187500 0.000000
vt 0.187500 1.000000
vt 0.250000 1.000000
vt 0.062500 1.000000
vt 0.062500 0.000000
vt 0.500000 0.062500
vt 0.500000 0.125000
vt 0.375000 0.125000
vt 0.437500 0.062500
vt 0.437500 0.937500
vt 0.362635 0.544454
vt 0.362635 0.455546
vt 0.001001 0.455546
vt 0.001001 0.544454
vt 0.089908 0.001001
vt 0.001001 0.001001
vt 0.001001 0.362635
vt 0.089908 0.362635
vt 0.750000 0.062500
vt 0.687500 0.062500
vt 0.687500 0.937500
vt 0.750000 0.937500
vt 0.000000 0.000000
vt -0.000000 1.000000
vt 0.750000 0.875000
vt 0.625000 0.875000
vt 0.625000 0.937500
vt 0.625000 0.062500
vt 0.500000 0.937500
vt 0.500000 0.875000
vt 0.375000 0.875000
vt 0.250000 0.062500
vt 0.250000 0.937500
vt 0.562500 0.062500
vt 0.562500 0.937500
vt 0.187500 0.937500
vt 0.062500 0.937500
vt 0.250000 0.875000
vt 0.062500 0.062500
vt 0.187500 0.062500
vt 0.625000 0.125000
vt 0.750000 0.125000
vt 0.250000 0.125000
vn 0.000000 0.000000 -1.000000
vn 1.000000 -0.000000 0.000000
vn -0.000000 1.000000 0.000000
vn -1.000000 0.000000 0.000000
vn -0.000000 -0.000000 1.000000
vn 0.000000 -1.000000 -0.000000
vn -1.000000 -0.002500 -0.000200
usemtl Material.001
s off
f 36/1/1 34/2/1 1/3/1 35/4/1
f 4/5/2 16/6/2 44/7/2 5/8/2
f 27/7/3 11/9/3 10/10/3 9/6/3
f 26/2/4 13/11/4 14/12/4 15/13/4
f 15/3/5 24/2/5 25/14/5 26/15/5
f 8/16/6 7/17/6 12/18/6 19/19/6
f 23/20/6 4/21/6 5/22/6 6/23/6
f 29/24/1 31/25/1 20/26/1 30/27/1
f 7/10/2 10/28/2 11/29/2 12/9/2
f 30/27/2 20/30/2 21/31/2 22/32/2
f 8/8/7 19/5/7 27/6/7 9/7/7
f 43/11/3 39/33/3 40/32/3 41/34/3
f 44/7/3 16/6/3 17/10/3 18/9/3
f 48/32/2 39/31/2 43/35/2 42/34/2
f 45/34/2 33/35/2 25/36/2 24/3/2
f 37/37/6 36/2/6 35/3/6 3/38/6
f 42/34/6 47/11/6 46/33/6 48/32/6
f 25/3/3 33/34/3 13/11/3 26/2/3
f 24/3/6 15/2/6 14/11/6 45/34/6
f 23/9/4 6/10/4 18/28/4 17/29/4
f 46/33/1 40/39/1 39/40/1 48/32/1
f 16/7/1 4/41/1 23/42/1 17/9/1
f 35/36/2 1/3/2 2/38/2 3/43/2
f 12/42/5 11/9/5 27/7/5 19/41/5
f 21/32/3 20/27/3 31/24/3 32/33/3
f 10/10/1 7/44/1 8/45/1 9/6/1
f 47/34/5 42/11/5 43/39/5 41/40/5
f 6/44/5 5/45/5 44/6/5 18/10/5
f 41/12/4 40/46/4 46/33/4 47/11/4
f 22/32/6 28/33/6 29/24/6 30/27/6
f 1/3/3 34/2/3 38/37/3 2/38/3
f 14/11/1 13/14/1 33/15/1 45/34/1
f 28/32/5 22/33/5 21/25/5 32/26/5
f 32/46/4 31/47/4 29/24/4 28/33/4
f 34/13/4 36/2/4 37/37/4 38/48/4
f 37/37/5 3/38/5 2/4/5 38/1/5
