# Blender v2.76 (sub 0) OBJ File: ''
# www.blender.org
mtllib track_curved_2_positive.mtl
o track_straight_axis
v -0.264586 0.063816 2.000000
v -0.087799 0.063816 2.000000
v -0.602674 0.063816 1.485124
v -0.691068 0.063816 1.573519
v -0.264586 0.001312 2.000000
v -0.691067 0.001312 1.573518
v -0.602674 0.001312 1.485124
v -0.087798 0.001312 2.000000
v -0.588159 0.063816 2.000000
v -0.411373 0.063816 2.000000
v -0.764460 0.063816 1.646911
v -0.852854 0.063816 1.735305
v -0.588158 0.001312 2.000000
v -0.852854 0.001312 1.735304
v -0.764460 0.001312 1.646911
v -0.411371 0.001312 2.000000
v 0.000777 0.063816 1.853752
v 0.000777 0.063816 2.000000
v -0.145471 0.063816 2.000000
v -0.145738 0.126319 2.000000
v 0.000777 0.126319 1.853577
v 0.000777 0.126319 2.000000
v -0.852618 0.126319 2.000000
v -0.324223 0.126319 1.471605
v -0.499223 0.126319 1.469819
v -1.029405 0.126319 2.000000
v -0.499223 0.063816 1.469819
v -1.029405 0.063816 2.000000
v -0.324223 0.063816 1.471605
v -0.852617 0.063816 2.000000
v -0.912159 0.063816 2.000000
v -0.735372 0.063816 2.000000
v -0.926460 0.063816 1.808911
v -1.014854 0.063816 1.897305
v -0.912158 0.001312 2.000000
v -1.014854 0.001312 1.897304
v -0.926460 0.001312 1.808911
v -0.735371 0.001312 2.000000
v 0.062651 -0.000003 0.062651
v 0.062651 0.062501 0.062651
v 0.937349 0.062501 0.062652
v 0.937349 -0.000003 0.062651
v 0.052020 0.062501 0.414698
v 0.058562 0.062501 0.289862
v 0.058562 -0.000003 0.289862
v 0.052020 -0.000003 0.414696
v 0.925519 -0.000003 0.460476
v 0.925519 0.062501 0.460476
v 0.062651 -0.000003 0.812693
v 0.062651 0.062501 0.812693
v 0.937349 0.062501 0.812695
v 0.937349 -0.000003 0.812693
v 0.937349 0.062501 0.937701
v 0.937349 -0.000003 0.937701
v 0.937349 0.062501 0.687687
v 0.937349 0.062501 0.562680
v 0.062651 0.062501 0.562679
v 0.062651 0.062501 0.687687
v 0.937349 -0.000003 0.562679
v 0.937349 -0.000003 0.687687
v 0.932062 -0.000003 0.335640
v 0.932061 0.062501 0.335641
v 0.062651 -0.000003 0.187659
v 0.937349 -0.000003 0.187659
v 0.062651 -0.000003 0.687686
v 0.062651 -0.000003 0.562679
v 0.937349 0.062501 0.187659
v 0.062651 0.062501 0.937701
v 0.062651 -0.000003 0.937700
v 0.062651 0.062501 0.187659
v 1.062651 0.062501 0.437673
v 1.062651 0.062501 0.312665
v 1.062651 -0.000003 0.312665
v 1.062651 -0.000003 0.437671
v 1.937349 -0.000003 0.437673
v 1.937349 0.062501 0.437673
v 1.937349 -0.000003 0.312665
v 1.937349 0.062501 0.312666
v 1.062651 -0.000003 0.062651
v 1.062651 0.062501 0.062651
v 1.937349 0.062501 0.062652
v 1.937349 -0.000003 0.062651
v 1.062651 -0.000003 0.187659
v 1.937349 -0.000003 0.187659
v 1.937349 0.062501 0.187659
v 1.062651 0.062501 0.187659
v 1.937349 0.062501 0.687687
v 1.937349 0.062501 0.562680
v 1.062651 0.062501 0.562679
v 1.062651 0.062501 0.687687
v 1.937349 -0.000003 0.562679
v 1.937349 -0.000003 0.687687
v 1.062651 -0.000003 0.687686
v 1.062651 -0.000003 0.562679
v 1.062651 -0.000003 0.812693
v 1.062651 0.062501 0.812693
v 1.937349 0.062501 0.812695
v 1.937349 -0.000003 0.812693
v 1.937349 0.062501 0.937701
v 1.937349 -0.000003 0.937701
v 1.062651 0.062501 0.937701
v 1.062651 -0.000003 0.937700
vt 0.312500 0.062500
vt 0.375000 0.062500
vt 0.375000 0.937500
vt 0.312500 0.937500
vt 0.500000 0.062500
vt 0.500000 0.125000
vt 0.375000 0.125000
vt 0.437500 0.062500
vt 0.437500 0.937500
vt 0.750000 0.062500
vt 0.687500 0.062500
vt 0.687500 0.937500
vt 0.750000 0.937500
vt 0.750000 0.875000
vt 0.625000 0.875000
vt 0.625000 0.937500
vt 0.625000 0.062500
vt 0.500000 0.937500
vt 0.500000 0.875000
vt 0.375000 0.875000
vt 0.250000 0.062500
vt 0.250000 0.937500
vt 0.562500 0.062500
vt 0.562500 0.937500
vt 0.250000 0.875000
vt 0.625000 0.125000
vt 0.750000 0.125000
vt 0.250000 0.125000
vt 0.500000 0.312500
vt 0.625000 0.187500
vt 0.500000 0.687500
vt 0.625000 0.812500
vt 0.625000 0.437500
vt 0.750000 0.562500
vt 0.625000 0.562500
vt 0.687500 0.562500
vt 0.562500 0.790894
vt 0.625000 0.790895
vt 0.219273 0.544454
vt 0.181865 0.470904
vt 0.144456 0.544454
vt 0.250000 0.603572
vt 0.250000 0.396685
vt 0.187500 0.396497
vt 0.187500 0.603697
vt 0.562500 0.312500
vt 0.687500 0.540794
vt 0.750000 0.540794
vt 0.187500 0.603503
vt 0.084061 0.499870
vt 0.187500 0.396303
vt 0.187500 0.853473
vt 0.187500 0.146375
vt 0.062500 0.073135
vt 0.062500 0.926714
vt 0.062500 0.926864
vt 0.062500 0.073286
vt 0.000000 0.073286
vt 0.000000 0.926865
vt 0.089908 0.027450
vt 0.001001 0.053935
vt 0.001001 0.309646
vt 0.089908 0.336132
vt 0.250000 0.146375
vt 0.250000 0.853473
vt 0.250000 0.187500
vt 0.375000 0.312500
vt 0.687500 0.812500
vt 0.687500 0.321349
vt 0.750000 0.321349
vt 0.062500 0.937500
vt 0.187500 0.937500
vt 0.187500 1.000000
vt 0.062500 1.000000
vt 0.750000 0.750000
vt 0.625000 0.750000
vt 0.750000 0.812500
vt 0.750000 0.500000
vt 0.625000 0.500000
vt 0.625000 0.250000
vt 0.500000 0.250000
vt 0.500000 0.187500
vt 0.187500 0.000000
vt 0.062500 0.000000
vt 0.062500 0.062500
vt 0.187500 0.062500
vn -0.577400 -0.577300 -0.577400
vn -0.577300 0.577400 -0.577300
vn 0.577400 0.577400 -0.577300
vn 0.577300 -0.577300 -0.577400
vn -0.606800 0.577300 0.546300
vn -0.546300 0.577400 -0.606800
vn -0.546300 -0.577300 -0.606800
vn -0.606800 -0.577400 0.546300
vn 0.546300 -0.577400 0.606800
vn 0.546300 0.577300 0.606800
vn 0.577400 0.577300 0.577400
vn 0.577300 -0.577400 0.577300
vn -0.577300 0.577300 0.577400
vn 0.606800 -0.577300 -0.546300
vn 0.606800 0.577400 -0.546300
vn -0.577400 -0.577400 0.577400
vn -0.577400 -0.577400 0.577300
vn -0.577400 0.577400 0.577400
vn 0.577400 0.577300 -0.577300
vn 0.577300 -0.577400 -0.577400
vn -0.297100 0.630300 0.717300
vn 0.773500 0.546900 0.320400
vn -0.000000 0.577400 -0.816500
vn -0.816500 0.577300 0.000000
vn -0.297100 -0.630300 0.717300
vn -0.816500 -0.577400 -0.000000
vn -0.000000 -0.577300 -0.816500
vn 0.773500 -0.546900 0.320400
vn 0.320600 -0.548200 -0.772500
vn 0.577400 -0.577400 0.577400
vn -0.772500 -0.548000 0.320800
vn -0.774500 0.545800 0.319800
vn 0.320300 0.545700 -0.774400
vn 0.577400 0.577400 0.577400
vn 0.297100 0.630300 0.717300
vn 0.630800 0.451800 0.630800
vn -0.393400 0.830900 -0.393400
vn -0.773500 0.546900 0.320400
vn -0.393400 -0.830900 -0.393400
vn -0.773500 -0.546900 0.320400
vn 0.630800 -0.451800 0.630800
vn 0.297100 -0.630300 0.717300
usemtl Material
s 1
f 39/1/1 40/2/2 41/3/3 42/4/4
f 43/2/5 44/5/6 45/6/7 46/7/8
f 46/3/8 47/2/9 48/8/10 43/9/5
f 49/10/1 50/11/2 51/12/3 52/13/4
f 52/13/4 51/14/3 53/15/11 54/16/12
f 55/5/11 56/17/3 57/16/2 58/18/13
f 59/16/4 56/15/3 55/19/11 60/18/12
f 61/18/14 62/19/15 48/20/10 47/3/9
f 63/21/16 39/2/1 42/3/4 64/22/12
f 60/18/12 65/5/17 66/17/1 59/16/4
f 48/3/10 62/18/15 44/5/6 43/2/5
f 47/3/9 46/2/8 45/5/7 61/18/14
f 66/17/1 57/23/2 56/24/3 59/16/4
f 42/20/4 41/3/3 67/22/11 64/25/12
f 53/16/11 51/13/3 50/10/2 68/17/13
f 65/18/17 60/5/12 55/23/11 58/24/13
f 58/6/13 57/26/2 66/17/1 65/5/17
f 54/16/12 69/17/17 49/10/1 52/13/4
f 41/3/3 40/2/2 70/21/18 67/22/11
f 45/5/7 44/8/6 62/9/15 61/18/14
f 69/16/17 54/17/12 53/11/11 68/12/13
f 68/26/13 50/27/2 49/10/1 69/17/17
f 40/7/2 39/2/1 63/21/16 70/28/18
f 63/21/16 64/22/12 67/4/11 70/1/18
f 71/2/13 72/5/2 73/6/1 74/7/17
f 74/3/17 75/2/12 76/8/11 71/9/13
f 77/18/4 78/19/3 76/20/11 75/3/12
f 76/3/11 78/18/3 72/5/2 71/2/13
f 75/3/12 74/2/17 73/5/1 77/18/4
f 73/5/1 72/8/2 78/9/3 77/18/4
f 79/1/1 80/2/2 81/3/19 82/4/20
f 83/21/16 79/2/1 82/3/20 84/22/12
f 82/20/20 81/3/19 85/22/11 84/25/12
f 81/3/19 80/2/2 86/21/18 85/22/11
f 80/7/2 79/2/1 83/21/16 86/28/18
f 83/21/16 84/22/12 85/4/11 86/1/18
f 87/5/11 88/17/3 89/16/2 90/18/13
f 91/16/4 88/15/3 87/19/11 92/18/12
f 92/18/12 93/5/17 94/17/1 91/16/4
f 94/17/1 89/23/2 88/24/3 91/16/4
f 93/18/17 92/5/12 87/23/11 90/24/13
f 90/6/13 89/26/2 94/17/1 93/5/17
f 95/10/1 96/11/2 97/12/3 98/13/4
f 98/13/4 97/14/3 99/15/11 100/16/12
f 99/16/11 97/13/3 96/10/2 101/17/13
f 100/16/12 102/17/17 95/10/1 98/13/4
f 102/16/17 100/17/12 99/11/11 101/12/13
f 101/26/13 96/27/2 95/10/1 102/17/17
f 1/29/21 2/30/22 3/16/23 4/18/24
f 5/31/25 6/5/26 7/17/27 8/32/28
f 9/33/21 10/34/22 11/10/23 12/17/24
f 4/6/24 3/26/23 7/17/27 6/5/26
f 13/33/25 14/17/26 15/10/27 16/34/28
f 12/26/24 11/27/23 15/10/27 14/17/26
f 14/16/26 13/35/25 9/36/21 12/12/24
f 7/17/27 3/23/23 2/37/22 8/38/28
f 17/39/29 18/40/30 19/41/31
f 17/42/29 19/43/31 20/44/32 21/45/33
f 6/18/26 5/29/25 1/46/21 4/24/24
f 15/10/27 11/11/23 10/47/22 16/48/28
f 20/49/32 22/50/34 21/51/33
f 23/52/35 24/53/36 25/54/37 26/55/38
f 27/56/39 28/57/40 26/58/38 25/59/37
f 27/60/39 29/61/41 30/62/42 28/63/40
f 29/64/41 24/53/36 23/52/35 30/65/42
f 31/66/21 32/67/22 33/2/23 34/21/24
f 35/66/25 36/21/26 37/2/27 38/67/28
f 34/26/24 33/27/23 37/10/27 36/17/26
f 36/16/26 35/32/25 31/68/21 34/12/24
f 37/10/27 33/11/23 32/69/22 38/70/28
f 28/71/40 30/72/42 23/73/35 26/74/38
f 32/75/22 31/76/21 35/32/25 38/77/28
f 10/78/22 9/79/21 13/35/25 16/34/28
f 8/30/28 2/80/22 1/81/21 5/82/25
f 19/83/31 18/84/30 22/85/34 20/86/32
f 17/72/29 21/73/33 22/74/34 18/71/30
