# Blender v2.76 (sub 0) OBJ File: ''
# www.blender.org
mtllib cart.mtl
o Cube_Cube.000
v -0.150000 0.250000 0.550000
v -0.150000 0.250000 -0.550000
v -0.150000 0.125000 -0.550000
v -0.150000 0.125000 0.550000
v 0.150000 0.250000 -0.550000
v 0.150000 0.125000 -0.550000
v 0.150000 0.250000 0.550000
v 0.150000 0.125000 0.550000
v -0.100000 0.250000 0.500000
v 0.100000 0.250000 0.500000
v 0.350000 0.750000 0.500000
v -0.350000 0.750000 0.500000
v -0.100000 0.250000 -0.500000
v 0.100000 0.250000 -0.500000
v 0.282500 0.750000 0.432500
v 0.282500 0.750000 -0.432500
v 0.082500 0.300000 -0.432500
v 0.082500 0.300000 0.432500
v -0.350000 0.750000 -0.500000
v 0.350000 0.750000 -0.500000
v -0.282500 0.750000 0.432500
v -0.282500 0.750000 -0.432500
v -0.082500 0.300000 -0.432500
v -0.082500 0.300000 0.432500
vn -1.000000 0.000000 0.000000
vn 0.000000 0.000000 -1.000000
vn 1.000000 0.000000 0.000000
vn 0.000000 0.000000 1.000000
vn 0.000000 -1.000000 -0.000000
vn -0.000000 1.000000 0.000000
vn -0.913800 0.406100 0.000000
vn 0.894400 -0.447200 0.000000
vn -0.894400 -0.447200 0.000000
vn 0.913800 0.406100 0.000000
usemtl None.001
s 1
f 1//1 2//1 3//1 4//1
f 2//2 5//2 6//2 3//2
f 5//3 7//3 8//3 6//3
f 7//4 1//4 4//4 8//4
f 4//5 3//5 6//5 8//5
f 9//4 10//4 11//4 12//4
f 9//6 13//6 2//6 1//6
f 13//6 14//6 5//6 2//6
f 14//6 10//6 7//6 5//6
f 10//6 9//6 1//6 7//6
f 15//7 16//7 17//7 18//7
f 14//2 13//2 19//2 20//2
f 10//8 14//8 20//8 11//8
f 13//9 9//9 12//9 19//9
f 21//6 22//6 19//6 12//6
f 22//6 16//6 20//6 19//6
f 16//6 15//6 11//6 20//6
f 15//6 21//6 12//6 11//6
f 18//6 17//6 23//6 24//6
f 22//10 21//10 24//10 23//10
f 21//2 15//2 18//2 24//2
f 16//4 22//4 23//4 17//4
