# Blender v2.76 (sub 0) OBJ File: ''
# www.blender.org
mtllib steam_medium.mtl
o Steam_small_Cube_Cube.003
v 0.150000 0.500000 -1.068000
v 0.150000 0.500000 1.032000
v 0.150000 0.125000 1.032000
v 0.150000 0.125000 -1.068000
v -0.150000 0.500000 1.032000
v -0.150000 0.125000 1.032000
v -0.150000 0.500000 -1.068000
v -0.150000 0.125000 -1.068000
v -0.150000 0.312500 1.032000
v -0.150000 0.312500 -1.068000
v -0.400000 0.500000 1.032000
v -0.400000 0.500000 -1.068000
v -0.400000 0.312500 1.032000
v -0.400000 0.312500 -1.068000
v 0.150000 0.312500 1.032000
v 0.150000 0.312500 -1.068000
v 0.400000 0.500000 1.032000
v 0.400000 0.312500 1.032000
v 0.400000 0.500000 -1.068000
v 0.400000 0.312500 -1.068000
v 0.400000 0.500000 -0.218000
v -0.400000 0.500000 -0.218000
v 0.000000 1.020000 1.007000
v -0.000000 1.020000 -0.243000
v -0.150000 0.979808 1.007000
v -0.150000 0.979808 -0.243000
v -0.259808 0.870000 1.007000
v -0.259808 0.870000 -0.243000
v -0.300000 0.720000 1.007000
v -0.300000 0.720000 -0.243000
v -0.259808 0.570000 1.007000
v -0.259808 0.570000 -0.243000
v -0.150000 0.460192 1.007000
v -0.150000 0.460192 -0.243000
v 0.000000 0.420000 1.007000
v -0.000000 0.420000 -0.243000
v 0.150000 0.460192 1.007000
v 0.150000 0.460192 -0.243000
v 0.259808 0.570000 1.007000
v 0.259808 0.570000 -0.243000
v 0.300000 0.720000 1.007000
v 0.300000 0.720000 -0.243000
v 0.259808 0.870000 1.007000
v 0.259808 0.870000 -0.243000
v 0.150000 0.979807 1.007000
v 0.150000 0.979807 -0.243000
v -0.400000 1.500000 -0.218000
v -0.400000 1.500000 -1.068000
v 0.400000 1.500000 -1.068000
v 0.400000 1.500000 -0.218000
vn 1.000000 -0.000000 -0.000000
vn 0.000000 0.000000 1.000000
vn -1.000000 0.000000 0.000000
vn 0.000000 0.000000 -1.000000
vn 0.000000 -1.000000 0.000000
vn -0.000000 1.000000 -0.000000
vn -0.258800 0.965900 0.000000
vn -0.707100 0.707100 0.000000
vn -0.965900 0.258800 0.000000
vn -0.965900 -0.258800 0.000000
vn -0.707100 -0.707100 0.000000
vn -0.258800 -0.965900 -0.000000
vn 0.258800 -0.965900 -0.000000
vn 0.707100 -0.707100 -0.000000
vn 0.965900 -0.258800 -0.000000
vn 0.965900 0.258800 -0.000000
vn 0.258800 0.965900 -0.000000
vn 0.707100 0.707100 0.000000
usemtl None.003
s off
f 15//1 3//1 4//1
f 9//2 6//2 15//2
f 10//3 8//3 6//3
f 16//4 4//4 10//4
f 3//5 6//5 8//5
f 1//4 19//4 20//4
f 9//5 13//5 14//5
f 22//3 14//3 13//3
f 5//2 11//2 13//2
f 10//4 14//4 12//4
f 21//1 18//1 20//1
f 16//5 20//5 18//5
f 21//2 50//2 47//2
f 15//2 18//2 17//2
f 17//6 21//6 22//6
f 24//7 26//7 25//7
f 26//8 28//8 27//8
f 28//9 30//9 29//9
f 30//10 32//10 31//10
f 32//11 34//11 33//11
f 34//12 36//12 35//12
f 35//13 36//13 38//13
f 37//14 38//14 40//14
f 40//15 42//15 41//15
f 42//16 44//16 43//16
f 44//4 36//4 24//4
f 46//17 24//17 23//17
f 43//18 44//18 46//18
f 33//2 37//2 45//2
f 50//6 49//6 48//6
f 22//3 47//3 48//3
f 19//1 49//1 50//1
f 12//4 48//4 49//4
f 16//1 15//1 4//1
f 15//2 2//2 5//2
f 5//2 9//2 15//2
f 6//2 3//2 15//2
f 9//3 10//3 6//3
f 10//4 7//4 1//4
f 1//4 16//4 10//4
f 4//4 8//4 10//4
f 4//5 3//5 8//5
f 16//4 1//4 20//4
f 10//5 9//5 14//5
f 13//3 11//3 22//3
f 22//3 12//3 14//3
f 9//2 5//2 13//2
f 7//4 10//4 12//4
f 20//1 19//1 21//1
f 21//1 17//1 18//1
f 15//5 16//5 18//5
f 22//2 21//2 47//2
f 2//2 15//2 17//2
f 11//6 17//6 22//6
f 23//7 24//7 25//7
f 25//8 26//8 27//8
f 27//9 28//9 29//9
f 29//10 30//10 31//10
f 31//11 32//11 33//11
f 33//12 34//12 35//12
f 37//13 35//13 38//13
f 39//14 37//14 40//14
f 39//15 40//15 41//15
f 41//16 42//16 43//16
f 28//4 26//4 24//4
f 24//4 46//4 44//4
f 44//4 42//4 40//4
f 40//4 38//4 36//4
f 36//4 34//4 32//4
f 32//4 30//4 28//4
f 28//4 24//4 36//4
f 44//4 40//4 36//4
f 36//4 32//4 28//4
f 45//17 46//17 23//17
f 45//18 43//18 46//18
f 45//2 23//2 25//2
f 25//2 27//2 45//2
f 29//2 31//2 33//2
f 33//2 35//2 37//2
f 37//2 39//2 41//2
f 41//2 43//2 45//2
f 45//2 27//2 29//2
f 29//2 33//2 45//2
f 37//2 41//2 45//2
f 47//6 50//6 48//6
f 12//3 22//3 48//3
f 21//1 19//1 50//1
f 19//4 12//4 49//4
