# Blender v2.76 (sub 0) OBJ File: ''
# www.blender.org
mtllib steam_small.mtl
o Cube_Cube.004
v -0.150000 0.250000 -0.550000
v -0.150000 0.125000 -0.550000
v -0.150000 0.125000 0.550000
v 0.150000 0.250000 -0.550000
v 0.150000 0.125000 -0.550000
v 0.150000 0.250000 0.550000
v 0.150000 0.125000 0.550000
v -0.150000 0.250000 0.550000
v 0.100000 0.250000 -0.100000
v 0.350000 0.750000 -0.100000
v -0.350000 0.750000 -0.100000
v -0.100000 0.250000 -0.100000
v -0.100000 0.250000 -0.500000
v 0.100000 0.250000 -0.500000
v 0.282500 0.750000 -0.432500
v 0.082500 0.300000 -0.432500
v 0.082500 0.300000 -0.167500
v -0.350000 0.750000 -0.500000
v 0.350000 0.750000 -0.500000
v -0.282500 0.750000 -0.432500
v 0.282500 0.750000 -0.167500
v -0.282500 0.750000 -0.167500
v -0.082500 0.300000 -0.432500
v -0.082500 0.300000 -0.167500
v 0.000000 0.630000 0.537000
v 0.100000 0.603205 0.537000
v 0.100000 0.603205 -0.163000
v 0.173205 0.530000 0.537000
v 0.173205 0.530000 -0.163000
v 0.200000 0.430000 0.537000
v 0.200000 0.430000 -0.163000
v 0.173205 0.330000 0.537000
v 0.173205 0.330000 -0.163000
v 0.100000 0.256795 0.537000
v 0.000000 0.230000 0.537000
v 0.000000 0.230000 -0.163000
v -0.100000 0.256795 0.537000
v -0.173205 0.330000 0.537000
v -0.173205 0.330000 -0.163000
v -0.200000 0.430000 0.537000
v -0.200000 0.430000 -0.163000
v -0.173205 0.530000 0.537000
v -0.173205 0.530000 -0.163000
v -0.100000 0.603205 0.537000
v 0.000000 0.630000 -0.163000
v -0.100000 0.603205 -0.163000
v 0.000000 0.750000 0.225000
v 0.064952 0.750000 0.262500
v 0.064952 0.550000 0.262500
v 0.064952 0.750000 0.337500
v 0.064952 0.550000 0.337500
v 0.000000 0.750000 0.375000
v -0.064952 0.750000 0.337500
v -0.064952 0.550000 0.337500
v -0.064952 0.750000 0.262500
v 0.000000 0.550000 0.225000
v -0.064952 0.550000 0.262500
v 0.000000 0.550000 0.375000
v 0.100000 0.256795 -0.163000
v -0.100000 0.256795 -0.163000
vn -0.894400 -0.447200 0.000000
vn 0.000000 1.000000 0.000000
vn 1.000000 0.000000 0.000000
vn 0.000000 0.000000 1.000000
vn -0.258800 -0.965900 -0.000000
vn 0.913800 0.406100 0.000000
vn 0.258800 -0.965900 -0.000000
vn 0.000000 0.000000 -1.000000
vn -0.500000 0.000000 0.866000
vn 0.000000 -1.000000 -0.000000
vn -0.913800 0.406100 0.000000
vn 0.500000 0.000000 -0.866000
vn 0.894400 -0.447200 0.000000
vn -1.000000 0.000000 0.000000
vn -0.500000 0.000000 -0.866000
vn 0.500000 0.000000 0.866000
vn 0.378600 0.655700 -0.653200
vn 0.378600 0.655700 0.653200
vn 0.655700 0.378600 0.653200
vn 0.655700 0.378600 -0.653200
vn 0.757100 0.000000 0.653200
vn 0.757100 0.000000 -0.653200
vn -0.655700 0.378600 -0.653200
vn -0.655700 0.378600 0.653200
vn -0.378600 0.655700 0.653200
vn -0.378600 0.655700 -0.653200
vn 0.655700 -0.378600 0.653200
vn 0.655700 -0.378600 -0.653200
vn 0.000000 0.757100 -0.653200
vn 0.000000 0.757100 0.653200
vn 0.378600 -0.655700 -0.653200
vn 0.378600 -0.655700 0.653200
vn -0.378600 -0.655700 -0.653200
vn -0.378600 -0.655700 0.653200
vn -0.655700 -0.378600 0.653200
vn -0.655700 -0.378600 -0.653200
vn -0.757100 0.000000 0.653200
vn -0.757100 0.000000 -0.653200
usemtl None.004
s off
f 13//1 12//1 11//1 18//1
f 9//2 12//2 8//2 6//2
f 5//3 4//3 6//3 7//3
f 12//2 13//2 1//2
f 13//2 14//2 4//2
f 9//2 6//2 4//2
f 28//4 25//4 42//4 35//4
f 60//5 36//5 35//5 37//5
f 12//4 9//4 10//4 11//4
f 20//6 22//6 24//6 23//6
f 20//2 18//2 11//2
f 15//2 19//2 18//2
f 21//2 10//2 19//2
f 22//2 11//2 10//2
f 59//7 34//7 35//7 36//7
f 6//4 8//4 3//4 7//4
f 15//4 20//4 23//4 16//4
f 14//8 13//8 18//8 19//8
f 58//9 52//9 53//9 54//9
f 51//3 49//3 48//3 50//3
f 1//8 4//8 5//8 2//8
f 3//10 2//10 5//10 7//10
f 21//11 15//11 16//11 17//11
f 56//12 47//12 48//12 49//12
f 60//8 41//8 46//8 31//8
f 9//13 14//13 19//13 10//13
f 47//2 55//2 53//2 50//2
f 54//14 53//14 55//14 57//14
f 57//15 55//15 47//15 56//15
f 49//10 51//10 58//10 57//10
f 58//16 51//16 50//16 52//16
f 8//14 1//14 2//14 3//14
f 22//8 21//8 17//8 24//8
f 8//2 12//2 1//2
f 1//2 13//2 4//2
f 14//2 9//2 4//2
f 22//2 20//2 11//2
f 20//2 15//2 18//2
f 15//2 21//2 19//2
f 21//2 22//2 10//2
f 28//4 26//4 25//4
f 25//4 44//4 42//4
f 42//4 40//4 38//4
f 38//4 37//4 35//4
f 35//4 34//4 32//4
f 32//4 30//4 35//4
f 42//4 38//4 35//4
f 35//4 30//4 28//4
f 46//8 45//8 31//8
f 27//8 29//8 31//8
f 31//8 33//8 59//8
f 59//8 36//8 60//8
f 60//8 39//8 41//8
f 41//8 43//8 46//8
f 45//8 27//8 31//8
f 31//8 59//8 60//8
f 50//2 48//2 47//2
f 53//2 52//2 50//2
f 57//10 56//10 49//10
f 58//10 54//10 57//10
f 17//2 16//2 23//2 24//2
s 1
f 27//17 26//18 28//19 29//20
f 29//20 28//19 30//21 31//22
f 43//23 42//24 44//25 46//26
f 31//22 30//21 32//27 33//28
f 45//29 25//30 26//18 27//17
f 59//31 33//28 32//27 34//32
f 60//33 37//34 38//35 39//36
f 39//36 38//35 40//37 41//38
f 41//38 40//37 42//24 43//23
f 46//26 44//25 25//30 45//29
