# Blender v2.76 (sub 0) OBJ File: ''
# www.blender.org
mtllib wheel_small.mtl
o Cube_Cube.001
v -0.375000 0.125000 0.125000
v -0.375000 0.375000 0.125000
v -0.375000 0.125000 -0.125000
v -0.375000 0.375000 -0.125000
v 0.375000 0.125000 0.125000
v 0.375000 0.375000 0.125000
v 0.375000 0.125000 -0.125000
v 0.375000 0.375000 -0.125000
v 0.250000 0.375000 -0.125000
v 0.250000 0.125000 -0.125000
v 0.250000 0.375000 0.125000
v 0.250000 0.125000 0.125000
v -0.250000 0.200000 -0.050000
v -0.250000 0.300000 0.050000
v -0.250000 0.300000 -0.050000
v -0.250000 0.200000 0.050000
v -0.250000 0.375000 0.125000
v -0.250000 0.125000 0.125000
v -0.250000 0.375000 -0.125000
v -0.250000 0.125000 -0.125000
v 0.250000 0.200000 -0.050000
v 0.250000 0.300000 0.050000
v 0.250000 0.300000 -0.050000
v 0.250000 0.200000 0.050000
vn -1.000000 0.000000 0.000000
vn 0.000000 0.000000 -1.000000
vn 1.000000 0.000000 0.000000
vn 0.000000 0.000000 1.000000
vn 0.000000 -1.000000 0.000000
vn 0.000000 1.000000 0.000000
usemtl None
s off
f 2//1 4//1 3//1 1//1
f 9//2 8//2 7//2 10//2
f 8//3 6//3 5//3 7//3
f 17//4 2//4 1//4 18//4
f 12//5 10//5 7//5 5//5
f 17//6 19//6 4//6 2//6
f 6//4 11//4 12//4 5//4
f 6//6 8//6 9//6 11//6
f 16//5 13//5 21//5 24//5
f 12//1 11//1 9//1 10//1
f 1//5 3//5 20//5 18//5
f 4//2 19//2 20//2 3//2
f 18//3 20//3 19//3 17//3
f 14//4 16//4 24//4 22//4
f 13//2 15//2 23//2 21//2
f 15//6 14//6 22//6 23//6
