# Blender v2.76 (sub 0) OBJ File: ''
# www.blender.org
mtllib sleeper_1.mtl
o track_straight_axis
v -0.437349 -0.125003 -0.062349
v -0.437349 -0.062499 -0.062349
v 0.437349 -0.062499 -0.062348
v 0.437349 -0.125003 -0.062349
v -0.437349 -0.125003 0.062659
v 0.437349 -0.125003 0.062659
v 0.437349 -0.062499 0.062659
v -0.437349 -0.062499 0.062659
vt 0.437500 0.062500
vt 0.500000 0.062500
vt 0.500000 0.937500
vt 0.437500 0.937500
vt 0.375000 0.062500
vt 0.375000 0.937500
vt 0.500000 0.875000
vt 0.375000 0.875000
vt 0.500000 0.125000
vt 0.375000 0.125000
vn -0.577400 -0.577300 -0.577400
vn -0.577300 0.577400 -0.577300
vn 0.577400 0.577400 -0.577300
vn 0.577300 -0.577300 -0.577400
vn -0.577400 -0.577400 0.577400
vn 0.577400 -0.577400 0.577400
vn 0.577400 0.577400 0.577400
vn -0.577400 0.577400 0.577400
usemtl Material.001
s 1
f 1/1/1 2/2/2 3/3/3 4/4/4
f 5/5/5 1/2/1 4/3/4 6/6/6
f 4/7/4 3/3/3 7/6/7 6/8/6
f 3/3/3 2/2/2 8/5/8 7/6/7
f 2/9/2 1/2/1 5/5/5 8/10/8
f 5/5/5 6/6/6 7/4/7 8/1/8
